<?xml version="1.0" encoding="utf-8"?>
<!-- Generator: Adobe Illustrator 22.1.0, SVG Export Plug-In . SVG Version: 6.00 Build 0)  -->
<svg version="1.1" id="Layer_1" xmlns="http://www.w3.org/2000/svg" xmlns:xlink="http://www.w3.org/1999/xlink" x="0px" y="0px"
	 viewBox="0 0 58 58" style="enable-background:new 0 0 58 58;" xml:space="preserve">
<style type="text/css">
	.st0{opacity:0.2;fill:#F1F1F1;}
	.st1{fill:#FFFFFF;}
</style>
<title>flogo-RGB-HEX-Blk-58</title>
<g>
	<circle class="st0" cx="29" cy="29" r="20"/>
	<path class="st1" d="M36.6,20.5H21.4c-0.5,0-0.9,0.4-0.9,0.9v15.1c0,0.5,0.4,0.9,0.9,0.9c0,0,0,0,0,0h8.1v-6.6h-2.2v-2.6h2.2v-1.9
		c0-2.2,1.3-3.4,3.3-3.4c0.7,0,1.3,0,2,0.1v2.3h-1.3c-1.1,0-1.3,0.5-1.3,1.2v1.6h2.6l-0.3,2.6h-2.2v6.6h4.3c0.5,0,0.9-0.4,0.9-0.9
		l0,0V21.4C37.5,20.9,37.1,20.5,36.6,20.5C36.6,20.5,36.6,20.5,36.6,20.5z"/>
</g>
</svg>
