<?xml version="1.0" encoding="utf-8"?>
<!-- Generator: Adobe Illustrator 22.1.0, SVG Export Plug-In . SVG Version: 6.00 Build 0)  -->
<svg version="1.1" id="Layer_1" xmlns="http://www.w3.org/2000/svg" xmlns:xlink="http://www.w3.org/1999/xlink" x="0px" y="0px"
	 viewBox="0 0 58 58" style="enable-background:new 0 0 58 58;" xml:space="preserve">
<style type="text/css">
	.st0{opacity:0.2;fill:#F1F1F1;}
	.st1{fill:#FFFFFF;}
</style>
<title>flogo-RGB-HEX-Blk-58</title>
<g>
	<circle class="st0" cx="30" cy="30" r="20"/>
	<g>
		<path class="st1" d="M30,23c2.3,0,2.5,0,3.4,0c0.8,0,1.3,0.2,1.6,0.3c0.4,0.2,0.7,0.3,1,0.6c0.3,0.3,0.5,0.6,0.6,1
			c0.1,0.3,0.3,0.7,0.3,1.6c0,0.9,0,1.2,0,3.4s0,2.5,0,3.4c0,0.8-0.2,1.3-0.3,1.6c-0.2,0.4-0.3,0.7-0.6,1c-0.3,0.3-0.6,0.5-1,0.6
			c-0.3,0.1-0.7,0.3-1.6,0.3c-0.9,0-1.2,0-3.4,0s-2.5,0-3.4,0c-0.8,0-1.3-0.2-1.6-0.3c-0.4-0.2-0.7-0.3-1-0.6
			c-0.3-0.3-0.5-0.6-0.6-1c-0.1-0.3-0.3-0.7-0.3-1.6c0-0.9,0-1.2,0-3.4s0-2.5,0-3.4c0-0.8,0.2-1.3,0.3-1.6c0.2-0.4,0.3-0.7,0.6-1
			c0.3-0.3,0.6-0.5,1-0.6c0.3-0.1,0.7-0.3,1.6-0.3C27.5,23,27.7,23,30,23 M30,21.5c-2.3,0-2.6,0-3.5,0.1c-0.9,0-1.5,0.2-2.1,0.4
			c-0.6,0.2-1,0.5-1.5,1c-0.5,0.5-0.8,0.9-1,1.5c-0.2,0.5-0.4,1.2-0.4,2.1c0,0.9-0.1,1.2-0.1,3.5c0,2.3,0,2.6,0.1,3.5
			c0,0.9,0.2,1.5,0.4,2.1c0.2,0.6,0.5,1,1,1.5c0.5,0.5,0.9,0.8,1.5,1c0.5,0.2,1.2,0.4,2.1,0.4c0.9,0,1.2,0.1,3.5,0.1s2.6,0,3.5-0.1
			c0.9,0,1.5-0.2,2.1-0.4c0.6-0.2,1-0.5,1.5-1c0.5-0.5,0.8-0.9,1-1.5c0.2-0.5,0.4-1.2,0.4-2.1c0-0.9,0.1-1.2,0.1-3.5s0-2.6-0.1-3.5
			c0-0.9-0.2-1.5-0.4-2.1c-0.2-0.6-0.5-1-1-1.5c-0.5-0.5-0.9-0.8-1.5-1c-0.5-0.2-1.2-0.4-2.1-0.4C32.6,21.5,32.3,21.5,30,21.5
			L30,21.5z"/>
		<path class="st1" d="M30,25.6c-2.4,0-4.4,2-4.4,4.4s2,4.4,4.4,4.4s4.4-2,4.4-4.4S32.4,25.6,30,25.6z M30,32.8
			c-1.6,0-2.8-1.3-2.8-2.8c0-1.6,1.3-2.8,2.8-2.8c1.6,0,2.8,1.3,2.8,2.8C32.8,31.6,31.6,32.8,30,32.8z"/>
		<circle class="st1" cx="34.5" cy="25.5" r="1"/>
	</g>
</g>
</svg>
